# Blender v2.79 (sub 7) OBJ File: ''
# www.blender.org
mtllib skybox.mtl
o Cube_Cube.001
v -1.000000 -1.000000 1.000000
v -1.000000 1.000000 1.000000
v -1.000000 -1.000000 -1.000000
v -1.000000 1.000000 -1.000000
v 1.000000 -1.000000 1.000000
v 1.000000 1.000000 1.000000
v 1.000000 -1.000000 -1.000000
v 1.000000 1.000000 -1.000000
vt 0.251299 0.665822
vt 0.500033 0.997467
vt 0.251299 0.997467
vt 0.500033 0.665822
vt 0.748766 0.334178
vt 0.748766 0.665822
vt 0.500033 0.334178
vt 0.251300 0.002533
vt 0.500033 0.002533
vt 0.251299 0.334178
vt 0.002566 0.665822
vt 0.002566 0.334178
vt 0.997500 0.665822
vt 0.997500 0.334178
vn -1.0000 0.0000 0.0000
vn 0.0000 0.0000 -1.0000
vn 1.0000 0.0000 0.0000
vn 0.0000 0.0000 1.0000
vn 0.0000 -1.0000 0.0000
vn 0.0000 1.0000 0.0000
usemtl material
s off
f 2/1/1 3/2/1 1/3/1
f 4/4/2 7/5/2 3/6/2
f 8/7/3 5/8/3 7/9/3
f 6/10/4 1/11/4 5/12/4
f 7/5/5 1/13/5 3/6/5
f 4/4/6 6/10/6 8/7/6
f 2/1/1 4/4/1 3/2/1
f 4/4/2 8/7/2 7/5/2
f 8/7/3 6/10/3 5/8/3
f 6/10/4 2/1/4 1/11/4
f 7/5/5 5/14/5 1/13/5
f 4/4/6 2/1/6 6/10/6
